<?xml version="1.0" encoding="UTF-8"?>
<svg version="1.1" xmlns="http://www.w3.org/2000/svg" width="63" height="52">
<path d="M0 0 C6.11735861 3.69106448 9.83551365 8.77859074 11.97583008 15.52807617 C13.26357889 21.91430282 12.86383464 28.51428932 12.75 35 C12.73492392 36.50063759 12.72124069 38.00128985 12.70898438 39.50195312 C12.67621482 43.14744452 12.62459479 46.79237635 12.5625 50.4375 C7.78759766 48.63671875 7.78759766 48.63671875 5.76171875 46.84375 C2.48724646 44.74994889 -0.85601663 44.99522612 -4.625 44.9375 C-13.68518901 44.58033973 -21.10725994 43.65354285 -27.9296875 37.1484375 C-33.20816458 31.15887024 -34.09982735 25.46695671 -33.81640625 17.55859375 C-32.94830102 10.40791255 -29.76076367 6.18628978 -24.31640625 1.6640625 C-17.37256019 -2.86892641 -7.57669887 -3.40805181 0 0 Z M-23.4375 14.4375 C-24.79617399 18.51352197 -25.27171814 22.22500841 -23.71875 26.34375 C-21.580303 30.41369752 -19.5942447 32.58575868 -15.4375 34.4375 C-12.32179267 34.78744868 -9.2550836 34.72134827 -6.125 34.625 C-5.28904297 34.61146484 -4.45308594 34.59792969 -3.59179688 34.58398438 C-1.54008502 34.54881217 0.51129275 34.49501048 2.5625 34.4375 C2.67102923 31.56147545 2.7500515 28.68959168 2.8125 25.8125 C2.84601562 25.00425781 2.87953125 24.19601563 2.9140625 23.36328125 C3.00333132 17.87324874 2.26072246 14.77104097 -1.4375 10.4375 C-9.63197731 4.97451513 -17.30990009 7.01987906 -23.4375 14.4375 Z " fill="#975DFF" transform="translate(33.4375,1.5625)"/>
<path d="M0 0 C0.61875 0.86625 0.61875 0.86625 1.25 1.75 C3.50409468 4.64812173 5.6837433 7.34187165 9 9 C10.3734635 9.15004973 11.7528526 9.24838006 13.1328125 9.31640625 C13.93847656 9.35830078 14.74414062 9.40019531 15.57421875 9.44335938 C16.41597656 9.48267578 17.25773437 9.52199219 18.125 9.5625 C19.39923828 9.62727539 19.39923828 9.62727539 20.69921875 9.69335938 C22.79928223 9.79954236 24.89961948 9.90028497 27 10 C27 8.68 27 7.36 27 6 C33.625 3.125 33.625 3.125 37 2 C37 9.92 37 17.84 37 26 C32 24 32 24 30.19921875 22.40625 C26.92537915 20.31285345 23.58115121 20.55610793 19.8125 20.5 C12.04421636 20.22226697 5.6632873 19.44219153 -1 15 C-1.328125 12.03125 -1.328125 12.03125 -1.25 8.5 C-1.23453125 7.3346875 -1.2190625 6.169375 -1.203125 4.96875 C-1 2 -1 2 0 0 Z " fill="#999CFF" transform="translate(9,26)"/>
<path d="M0 0 C2.97 0 5.94 0 9 0 C9.20427691 3.70751367 9.32794588 7.41357472 9.4375 11.125 C9.49615234 12.17171875 9.55480469 13.2184375 9.61523438 14.296875 C9.78422575 21.92562837 9.78422575 21.92562837 7.48095703 25.08105469 C3.03787294 29 3.03787294 29 0 29 C0 19.43 0 9.86 0 0 Z " fill="#7E7EA4" transform="translate(51,23)"/>
<path d="M0 0 C1.875 1.0625 1.875 1.0625 3 3 C3.75912409 9.83211679 3.75912409 9.83211679 1.375 13.5 C-1.76313998 15.48198314 -3.34873465 15.67064058 -7 15 C-10.36344489 12.51397551 -11.80057749 11.08574477 -12.5625 6.9375 C-11.88178485 3.38265419 -10.79927541 2.222954 -8 0 C-5.06317146 -1.46841427 -3.13175678 -0.76696084 0 0 Z " fill="#585874" transform="translate(60,5)"/>
<path d="M0 0 C4.42225118 4.8644763 5.97040877 9.71204355 6.5 16.1875 C6 20 6 20 3.25 22.5 C0 24 0 24 -4 24 C-4.3760218 16.60490463 -4.3760218 16.60490463 -2.5625 13.6875 C-0.09341795 9.44067888 -0.24552239 4.83425122 0 0 Z " fill="#9AADFF" transform="translate(40,8)"/>
<path d="M0 0 C5.875 3.875 5.875 3.875 7 5 C7.15252309 6.91240484 7.22192773 8.83172799 7.25 10.75 C7.28867187 12.32007813 7.28867187 12.32007813 7.328125 13.921875 C6.96154354 17.36075818 6.03026531 19.23145639 4 22 C3.67 22 3.34 22 3 22 C2.773125 20.783125 2.54625 19.56625 2.3125 18.3125 C1.47840567 14.82892958 0.98764494 13.98764494 -1.6875 11.3125 C-2.450625 10.549375 -3.21375 9.78625 -4 9 C-4 5.12725372 -2.46484668 2.89351567 0 0 Z " fill="#974CFF" transform="translate(33,2)"/>
<path d="M0 0 C0 4.95 0 9.9 0 15 C-4.85216103 13.05913559 -6.53121595 11.65135163 -10 8 C-10.99 7.34 -11.98 6.68 -13 6 C-13 5.01 -13 4.02 -13 3 C-11.33333333 2.33333333 -9.66666667 1.66666667 -8 1 C-7.13375 0.608125 -6.2675 0.21625 -5.375 -0.1875 C-3 -1 -3 -1 0 0 Z " fill="#9748FF" transform="translate(46,37)"/>
<path d="M0 0 C3.12290635 0.48578543 5.99580359 0.9986012 9 2 C8.67 7.61 8.34 13.22 8 19 C2.95275382 13.95275382 -0.16220355 10.79654457 -0.1875 3.625 C-0.125625 2.42875 -0.06375 1.2325 0 0 Z " fill="#9AD0FF" transform="translate(0,21)"/>
<path d="M0 0 C0 2.97 0 5.94 0 9 C-0.70125 9.12375 -1.4025 9.2475 -2.125 9.375 C-5.08201089 9.96389282 -5.08201089 9.96389282 -8.1875 11.0625 C-11 12 -11 12 -13 12 C-13.33 12.66 -13.66 13.32 -14 14 C-16.02054804 12.35830472 -18.02043058 10.69088222 -20 9 C-20 8.67 -20 8.34 -20 8 C-16.7 8 -13.4 8 -10 8 C-10 6.68 -10 5.36 -10 4 C-8.88625 3.525625 -7.7725 3.05125 -6.625 2.5625 C-0.68 0 -0.68 0 0 0 Z " fill="#9871FF" transform="translate(46,28)"/>
<path d="M0 0 C-0.34350257 2.54191899 -0.68773964 4.51822688 -2.09375 6.6875 C-5.09235637 8.75211422 -7.64465502 8.04503481 -11.1875 7.6875 C-13.09595703 7.50767578 -13.09595703 7.50767578 -15.04296875 7.32421875 C-16.50669922 7.16373047 -16.50669922 7.16373047 -18 7 C-12.1852188 0.68680898 -8.28292606 -0.28077715 0 0 Z " fill="#9BE7FF" transform="translate(24,0)"/>
<path d="M0 0 C3.41153748 0.61469144 5.51769156 1.89511054 8.25 4 C8.95640625 4.53625 9.6628125 5.0725 10.390625 5.625 C11.18726563 6.305625 11.18726563 6.305625 12 7 C12 7.33 12 7.66 12 8 C6.39 8 0.78 8 -5 8 C-3.47524303 4.95048605 -2.07114674 2.63600494 0 0 Z " fill="#9AB6FF" transform="translate(25,38)"/>
<path d="M0 0 C6.15234375 0.5859375 6.15234375 0.5859375 8 1 C8.33 1.66 8.66 2.32 9 3 C8.22265625 4.7265625 8.22265625 4.7265625 7.0625 6.625 C6.381875 7.73875 5.70125 8.8525 5 10 C1.7 9.67 -1.6 9.34 -5 9 C-4.360625 8.071875 -3.72125 7.14375 -3.0625 6.1875 C-0.91377907 3.15780057 -0.91377907 3.15780057 0 0 Z " fill="#998FFF" transform="translate(24,0)"/>
<path d="M0 0 C0.4125 0.556875 0.825 1.11375 1.25 1.6875 C3.12256399 4.16195956 5.05339344 6.5835229 7 9 C5.35 11.31 3.7 13.62 2 16 C1.01 15.67 0.02 15.34 -1 15 C-1.02693575 12.87506859 -1.04636628 10.75004088 -1.0625 8.625 C-1.07410156 7.44164062 -1.08570313 6.25828125 -1.09765625 5.0390625 C-1 2 -1 2 0 0 Z " fill="#9868FF" transform="translate(9,26)"/>
<path d="M0 0 C0 0.66 0 1.32 0 2 C-0.99 2.495 -0.99 2.495 -2 3 C-2.268125 3.639375 -2.53625 4.27875 -2.8125 4.9375 C-4.40399341 7.70167276 -6.03024534 8.03482974 -9 9 C-9.99 9.495 -9.99 9.495 -11 10 C-11.49046322 4.60490463 -11.49046322 4.60490463 -9.125 1.6875 C-5.61973989 -1.09608891 -4.28896241 -1.01580689 0 0 Z " fill="#8484A9" transform="translate(59,5)"/>
<path d="M0 0 C4.5 5.625 4.5 5.625 5.25 9.8125 C5.39953125 10.60269531 5.5490625 11.39289062 5.703125 12.20703125 C5.80109375 12.79871094 5.8990625 13.39039063 6 14 C3.69 14.66 1.38 15.32 -1 16 C-0.67 10.72 -0.34 5.44 0 0 Z " fill="#9ABEFF" transform="translate(40,8)"/>
<path d="M0 0 C3.125 0.3125 3.125 0.3125 5.0625 2.0625 C6.125 4.3125 6.125 4.3125 5.8125 6.5625 C5.4721875 7.42875 5.4721875 7.42875 5.125 8.3125 C-2.75 7.4375 -2.75 7.4375 -3.875 6.3125 C-4 3.8125 -4 3.8125 -3.875 1.3125 C-2.875 0.3125 -2.875 0.3125 0 0 Z " fill="#99A1FF" transform="translate(3.875,14.6875)"/>
<path d="M0 0 C2.97 0 5.94 0 9 0 C9 1.65 9 3.3 9 5 C4.545 6.485 4.545 6.485 0 8 C0 5.36 0 2.72 0 0 Z " fill="#636382" transform="translate(51,23)"/>
<path d="M0 0 C1.32 0.66 2.64 1.32 4 2 C3.45276317 5.37462715 2.9451 7.08235 1 10 C1 10.99 1 11.98 1 13 C-0.65 11.68 -2.3 10.36 -4 9 C-3.46930939 5.17902761 -2.50298434 2.93828597 0 0 Z " fill="#9876FF" transform="translate(33,2)"/>
<path d="M0 0 C0 1.32 0 2.64 0 4 C-1.093125 4.103125 -2.18625 4.20625 -3.3125 4.3125 C-6.85559629 4.97307727 -7.93243723 5.2027092 -10 8 C-10.99 7.34 -11.98 6.68 -13 6 C-13 5.01 -13 4.02 -13 3 C-11.33333333 2.33333333 -9.66666667 1.66666667 -8 1 C-7.13375 0.608125 -6.2675 0.21625 -5.375 -0.1875 C-3 -1 -3 -1 0 0 Z " fill="#975CFF" transform="translate(46,37)"/>
<path d="M0 0 C2.31 0 4.62 0 7 0 C6.63287028 2.71675995 6.27255401 4.61063713 4.6875 6.875 C3 8 3 8 0.8125 7.6875 C0.214375 7.460625 -0.38375 7.23375 -1 7 C-0.67 4.69 -0.34 2.38 0 0 Z " fill="#9ABBFF" transform="translate(17,0)"/>
<path d="M0 0 C1.65 0.33 3.3 0.66 5 1 C2.56143667 6.60869565 2.56143667 6.60869565 -0.0625 8.4375 C-2 9 -2 9 -4 8 C-2.87548273 5.0280615 -1.77706209 2.66559313 0 0 Z " fill="#9881FF" transform="translate(15,35)"/>
<path d="M0 0 C4.21878192 -0.19622241 7.17010894 0.19769832 11 2 C9.68 3.65 8.36 5.3 7 7 C6.34 6.34 5.68 5.68 5 5 C3.01178687 4.60235737 1.01055661 4.26224651 -1 4 C-0.67 2.68 -0.34 1.36 0 0 Z " fill="#9873FF" transform="translate(2,11)"/>
<path d="M0 0 C0.33 0 0.66 0 1 0 C1.32523926 3.57763189 1.42956587 5.39542581 -0.6875 8.375 C-3.38790237 10.27258004 -4.77060081 10.35882213 -8 10 C-7.34 8.68 -6.68 7.36 -6 6 C-5.34 6 -4.68 6 -4 6 C-3.71125 5.38125 -3.4225 4.7625 -3.125 4.125 C-2 2 -2 2 0 0 Z " fill="#4B4B63" transform="translate(62,10)"/>
<path d="M0 0 C0.99 0.99 1.98 1.98 3 3 C1.75160501 4.105981 0.50120766 5.20970201 -0.75 6.3125 C-1.44609375 6.92738281 -2.1421875 7.54226562 -2.859375 8.17578125 C-4.85114506 9.87314734 -6.88898915 11.45477809 -9 13 C-9.625 11.125 -9.625 11.125 -10 9 C-8 7 -8 7 -6 6.625 C-3.79734983 6.17876824 -3.79734983 6.17876824 -2.75 3.9375 C-2.5025 3.298125 -2.255 2.65875 -2 2 C-1.34 2 -0.68 2 0 2 C0 1.34 0 0.68 0 0 Z " fill="#686888" transform="translate(59,5)"/>
<path d="M0 0 C1.67542976 0.28604898 3.34385343 0.61781233 5 1 C5 3.97 5 6.94 5 10 C-0.73529412 4.70588235 -0.73529412 4.70588235 -1 1 C-0.67 0.67 -0.34 0.34 0 0 Z " fill="#9CEDFF" transform="translate(2,29)"/>
<path d="M0 0 C3.79450934 0.39253545 5.51015791 2.24338912 8 5 C4.37 5 0.74 5 -3 5 C-1 1 -1 1 0 0 Z " fill="#9AD1FF" transform="translate(29,41)"/>
<path d="M0 0 C0 1.98 0 3.96 0 6 C-3.3 6.33 -6.6 6.66 -10 7 C-10 6.01 -10 5.02 -10 4 C-8.88625 3.525625 -7.7725 3.05125 -6.625 2.5625 C-0.68 0 -0.68 0 0 0 Z " fill="#9885FF" transform="translate(46,28)"/>
<path d="M0 0 C0.66 0 1.32 0 2 0 C1 3 1 3 -1.3125 4.6875 C-4 6 -4 6 -8 6 C-8 4.35 -8 2.7 -8 1 C-6.865625 1.020625 -5.73125 1.04125 -4.5625 1.0625 C-1.18424326 1.41577477 -1.18424326 1.41577477 0 0 Z " fill="#9999FF" transform="translate(44,26)"/>
<path d="M0 0 C0 0.99 0 1.98 0 3 C-5.34883721 8 -5.34883721 8 -8 8 C-8 6.35 -8 4.7 -8 3 C-5.36 2.01 -2.72 1.02 0 0 Z " fill="#8888B0" transform="translate(59,44)"/>
<path d="M0 0 C0 1.98 0 3.96 0 6 C-2.64738916 7.4606285 -3.89448334 8 -7 8 C-5.9363919 4.72054168 -4.1945074 0 0 0 Z " fill="#52526C" transform="translate(60,32)"/>
<path d="M0 0 C3.12290635 0.48578543 5.99580359 0.9986012 9 2 C9 3.65 9 5.3 9 7 C8.67 6.34 8.34 5.68 8 5 C6.10466658 4.53476937 6.10466658 4.53476937 3.9375 4.375 C2.638125 4.25125 1.33875 4.1275 0 4 C0 2.68 0 1.36 0 0 Z " fill="#9ABAFF" transform="translate(0,21)"/>
<path d="M0 0 C0.99 0 1.98 0 3 0 C3.33 1.32 3.66 2.64 4 4 C3.34 4 2.68 4 2 4 C1.773125 4.639375 1.54625 5.27875 1.3125 5.9375 C0 8 0 8 -2.625 8.75 C-3.40875 8.8325 -4.1925 8.915 -5 9 C-4.360625 8.071875 -3.72125 7.14375 -3.0625 6.1875 C-0.91377907 3.15780057 -0.91377907 3.15780057 0 0 Z " fill="#9AA9FF" transform="translate(24,0)"/>
<path d="M0 0 C1.89213369 2.38573379 3.02391783 4.07175348 4 7 C2.35 8.32 0.7 9.64 -1 11 C-1.0270043 9.54176788 -1.04639787 8.08339325 -1.0625 6.625 C-1.07410156 5.81289063 -1.08570313 5.00078125 -1.09765625 4.1640625 C-1 2 -1 2 0 0 Z " fill="#9854FF" transform="translate(9,26)"/>
<path d="M0 0 C3.125 0.3125 3.125 0.3125 5 2.3125 C5.556875 3.3025 5.556875 3.3025 6.125 4.3125 C0.70961538 4.68173077 0.70961538 4.68173077 -2.25 2.8125 C-2.78625 2.3175 -3.3225 1.8225 -3.875 1.3125 C-2.875 0.3125 -2.875 0.3125 0 0 Z " fill="#998BFF" transform="translate(3.875,14.6875)"/>
<path d="M0 0 C0.99 0.33 1.98 0.66 3 1 C3 1.66 3 2.32 3 3 C2.01 3.495 2.01 3.495 1 4 C0.731875 4.639375 0.46375 5.27875 0.1875 5.9375 C-1.40399341 8.70167276 -3.03024534 9.03482974 -6 10 C-6.99 10.495 -6.99 10.495 -8 11 C-7.8125 9.125 -7.8125 9.125 -7 7 C-6.195625 6.690625 -5.39125 6.38125 -4.5625 6.0625 C-1.75492583 5.22618194 -1.75492583 5.22618194 -0.6875 2.375 C-0.460625 1.59125 -0.23375 0.8075 0 0 Z " fill="#78789B" transform="translate(56,4)"/>
<path d="M0 0 C2.97 0 5.94 0 9 0 C9 0.66 9 1.32 9 2 C6 3 3 4 0 5 C0 3.35 0 1.7 0 0 Z " fill="#4E4E68" transform="translate(51,23)"/>
<path d="M0 0 C0.66 0 1.32 0 2 0 C1.45276317 3.37462715 0.9451 5.08235 -1 8 C-1 8.99 -1 9.98 -1 11 C-3 9 -3 9 -3.3125 6.625 C-2.94561394 3.54315707 -2.13570963 2.21785231 0 0 Z " fill="#9863FF" transform="translate(35,4)"/>
<path d="M0 0 C0 0.99 0 1.98 0 3 C-2.97 3.66 -5.94 4.32 -9 5 C-8.67 4.01 -8.34 3.02 -8 2 C-5.27366306 0.89786379 -2.95855967 0 0 0 Z " fill="#666686" transform="translate(60,38)"/>
<path d="M0 0 C1.65 0 3.3 0 5 0 C4.01 1.98 3.02 3.96 2 6 C1.01 6 0.02 6 -1 6 C-0.67 4.02 -0.34 2.04 0 0 Z " fill="#9BCEFF" transform="translate(17,0)"/>
<path d="M0 0 C2.2477975 2.05233685 3.0022242 3.00667261 4 6 C2.02 6.99 2.02 6.99 0 8 C0 5.36 0 2.72 0 0 Z " fill="#9BE5FF" transform="translate(41,10)"/>
<path d="M0 0 C0 0.66 0 1.32 0 2 C-5.625 5 -5.625 5 -9 5 C-9 4.34 -9 3.68 -9 3 C-3.375 0 -3.375 0 0 0 Z " fill="#757599" transform="translate(60,28)"/>
<path d="M0 0 C2.97 0 5.94 0 9 0 C9 0.66 9 1.32 9 2 C6.75 2.6875 6.75 2.6875 4 3 C1.6875 1.5625 1.6875 1.5625 0 0 Z " fill="#974BFF" transform="translate(10,8)"/>
<path d="M0 0 C0.33 0.99 0.66 1.98 1 3 C-0.32 4.32 -1.64 5.64 -3 7 C-3.99 6.67 -4.98 6.34 -6 6 C-5.38125 5.7525 -4.7625 5.505 -4.125 5.25 C-1.64931313 3.79371361 -1.04874998 2.62187494 0 0 Z " fill="#414156" transform="translate(62,13)"/>
</svg>
