<svg width="279" height="90" viewBox="0 0 279 90" fill="none" xmlns="http://www.w3.org/2000/svg">
<path d="M121.52 32.4C124.12 32.4 126.44 32.94 128.48 34.02C130.56 35.1 132.18 36.7 133.34 38.82C134.54 40.94 135.14 43.5 135.14 46.5V66H128.36V47.52C128.36 44.56 127.62 42.3 126.14 40.74C124.66 39.14 122.64 38.34 120.08 38.34C117.52 38.34 115.48 39.14 113.96 40.74C112.48 42.3 111.74 44.56 111.74 47.52V66H104.96V47.52C104.96 44.56 104.22 42.3 102.74 40.74C101.26 39.14 99.24 38.34 96.68 38.34C94.12 38.34 92.08 39.14 90.56 40.74C89.08 42.3 88.34 44.56 88.34 47.52V66H81.5V32.94H88.34V36.72C89.46 35.36 90.88 34.3 92.6 33.54C94.32 32.78 96.16 32.4 98.12 32.4C100.76 32.4 103.12 32.96 105.2 34.08C107.28 35.2 108.88 36.82 110 38.94C111 36.94 112.56 35.36 114.68 34.2C116.8 33 119.08 32.4 121.52 32.4ZM141.564 49.32C141.564 46 142.244 43.06 143.604 40.5C145.004 37.94 146.884 35.96 149.244 34.56C151.644 33.12 154.284 32.4 157.164 32.4C159.764 32.4 162.024 32.92 163.944 33.96C165.904 34.96 167.464 36.22 168.624 37.74V32.94H175.524V66H168.624V61.08C167.464 62.64 165.884 63.94 163.884 64.98C161.884 66.02 159.604 66.54 157.044 66.54C154.204 66.54 151.604 65.82 149.244 64.38C146.884 62.9 145.004 60.86 143.604 58.26C142.244 55.62 141.564 52.64 141.564 49.32ZM168.624 49.44C168.624 47.16 168.144 45.18 167.184 43.5C166.264 41.82 165.044 40.54 163.524 39.66C162.004 38.78 160.364 38.34 158.604 38.34C156.844 38.34 155.204 38.78 153.684 39.66C152.164 40.5 150.924 41.76 149.964 43.44C149.044 45.08 148.584 47.04 148.584 49.32C148.584 51.6 149.044 53.6 149.964 55.32C150.924 57.04 152.164 58.36 153.684 59.28C155.244 60.16 156.884 60.6 158.604 60.6C160.364 60.6 162.004 60.16 163.524 59.28C165.044 58.4 166.264 57.12 167.184 55.44C168.144 53.72 168.624 51.72 168.624 49.44ZM198.668 49.26L209.348 66H201.608L194.468 54.78L187.748 66H180.608L191.288 49.74L180.608 32.94H188.348L195.488 44.16L202.208 32.94H209.348L198.668 49.26ZM228.609 49.26L239.289 66H231.549L224.409 54.78L217.689 66H210.549L221.229 49.74L210.549 32.94H218.289L225.429 44.16L232.149 32.94H239.289L228.609 49.26ZM247.871 28.56C246.631 28.56 245.591 28.14 244.751 27.3C243.911 26.46 243.491 25.42 243.491 24.18C243.491 22.94 243.911 21.9 244.751 21.06C245.591 20.22 246.631 19.8 247.871 19.8C249.071 19.8 250.091 20.22 250.931 21.06C251.771 21.9 252.191 22.94 252.191 24.18C252.191 25.42 251.771 26.46 250.931 27.3C250.091 28.14 249.071 28.56 247.871 28.56ZM251.231 32.94V66H244.391V32.94H251.231ZM268.191 38.52V56.82C268.191 58.06 268.471 58.96 269.031 59.52C269.631 60.04 270.631 60.3 272.031 60.3H276.231V66H270.831C267.751 66 265.391 65.28 263.751 63.84C262.111 62.4 261.291 60.06 261.291 56.82V38.52H257.391V32.94H261.291V24.72H268.191V32.94H276.231V38.52H268.191Z" fill="white"/>
<g clip-path="url(#clip0_578_2747)">
<path d="M28.9408 66.2794H16.3611L32.8497 30.7206H45.4294L28.9408 66.2794Z" fill="url(#paint0_linear_578_2747)"/>
<path d="M49.4203 66.2794H62L45.5114 30.7206H32.9316L49.4203 66.2794Z" fill="url(#paint1_linear_578_2747)"/>
<path d="M12.5797 66.2794H0L16.4886 30.7206H29.0683L12.5797 66.2794Z" fill="url(#paint2_linear_578_2747)"/>
<g style="mix-blend-mode:multiply" opacity="0.7">
<path d="M23.791 50.2574L30.0809 63.8236L36.3707 50.2574L30.0809 36.6957L23.791 50.2574Z" fill="#536DFE"/>
</g>
<path d="M33.0594 66.2794H45.6391L29.1505 30.7206H16.5708L33.0594 66.2794Z" fill="url(#paint3_linear_578_2747)"/>
</g>
<defs>
<linearGradient id="paint0_linear_578_2747" x1="30.8975" y1="31.7157" x2="30.8975" y2="66.3205" gradientUnits="userSpaceOnUse">
<stop stop-color="#3D5AFE"/>
<stop offset="1" stop-color="#40C4FF"/>
</linearGradient>
<linearGradient id="paint1_linear_578_2747" x1="36.7904" y1="32.6149" x2="60.287" y2="67.518" gradientUnits="userSpaceOnUse">
<stop stop-color="#4CFFD5"/>
<stop offset="1" stop-color="#3D5AFE"/>
</linearGradient>
<linearGradient id="paint2_linear_578_2747" x1="14.5365" y1="31.7157" x2="14.5365" y2="66.3205" gradientUnits="userSpaceOnUse">
<stop stop-color="#3D5AFE"/>
<stop offset="1" stop-color="#40C4FF"/>
</linearGradient>
<linearGradient id="paint3_linear_578_2747" x1="20.4296" y1="32.6149" x2="43.9262" y2="67.518" gradientUnits="userSpaceOnUse">
<stop stop-color="#4CFFD5"/>
<stop offset="1" stop-color="#3D5AFE"/>
</linearGradient>
<clipPath id="clip0_578_2747">
<rect width="62" height="35.5588" fill="white" transform="translate(0 30.7206)"/>
</clipPath>
</defs>
</svg>
