<svg width="407" height="133" viewBox="0 0 407 133" fill="none" xmlns="http://www.w3.org/2000/svg">
<path d="M94.1182 66.06C94.1182 61.98 95.0582 58.32 96.9382 55.08C98.8582 51.84 101.438 49.32 104.678 47.52C107.958 45.68 111.538 44.76 115.418 44.76C119.858 44.76 123.798 45.86 127.238 48.06C130.718 50.22 133.238 53.3 134.798 57.3H126.578C125.498 55.1 123.998 53.46 122.078 52.38C120.158 51.3 117.938 50.76 115.418 50.76C112.658 50.76 110.198 51.38 108.038 52.62C105.878 53.86 104.178 55.64 102.938 57.96C101.738 60.28 101.138 62.98 101.138 66.06C101.138 69.14 101.738 71.84 102.938 74.16C104.178 76.48 105.878 78.28 108.038 79.56C110.198 80.8 112.658 81.42 115.418 81.42C117.938 81.42 120.158 80.88 122.078 79.8C123.998 78.72 125.498 77.08 126.578 74.88H134.798C133.238 78.88 130.718 81.96 127.238 84.12C123.798 86.28 119.858 87.36 115.418 87.36C111.498 87.36 107.918 86.46 104.678 84.66C101.438 82.82 98.8582 80.28 96.9382 77.04C95.0582 73.8 94.1182 70.14 94.1182 66.06ZM169.744 45.3V50.88H158.644V87H151.804V50.88H140.644V45.3H169.744ZM190.832 70.26L201.512 87H193.772L186.632 75.78L179.912 87H172.772L183.452 70.74L172.772 53.94H180.512L187.652 65.16L194.372 53.94H201.512L190.832 70.26ZM213.453 58.86C214.613 57.26 216.193 55.96 218.193 54.96C220.233 53.92 222.493 53.4 224.973 53.4C227.893 53.4 230.533 54.1 232.893 55.5C235.253 56.9 237.113 58.9 238.473 61.5C239.833 64.06 240.513 67 240.513 70.32C240.513 73.64 239.833 76.62 238.473 79.26C237.113 81.86 235.233 83.9 232.833 85.38C230.473 86.82 227.853 87.54 224.973 87.54C222.413 87.54 220.133 87.04 218.133 86.04C216.173 85.04 214.613 83.76 213.453 82.2V87H206.613V42.6H213.453V58.86ZM233.553 70.32C233.553 68.04 233.073 66.08 232.113 64.44C231.193 62.76 229.953 61.5 228.393 60.66C226.873 59.78 225.233 59.34 223.473 59.34C221.753 59.34 220.113 59.78 218.553 60.66C217.033 61.54 215.793 62.82 214.833 64.5C213.913 66.18 213.453 68.16 213.453 70.44C213.453 72.72 213.913 74.72 214.833 76.44C215.793 78.12 217.033 79.4 218.553 80.28C220.113 81.16 221.753 81.6 223.473 81.6C225.233 81.6 226.873 81.16 228.393 80.28C229.953 79.36 231.193 78.04 232.113 76.32C233.073 74.6 233.553 72.6 233.553 70.32ZM255.257 59.52V77.82C255.257 79.06 255.537 79.96 256.097 80.52C256.697 81.04 257.697 81.3 259.097 81.3H263.297V87H257.897C254.817 87 252.457 86.28 250.817 84.84C249.177 83.4 248.357 81.06 248.357 77.82V59.52H244.457V53.94H248.357V45.72H255.257V53.94H263.297V59.52H255.257Z" fill="white"/>
<g opacity="0.15">
<path d="M37.4177 75.8359L37.5071 84.127L37.4177 75.8359Z" fill="black"/>
</g>
<path d="M75.3391 54.5588H67.048V66.7003C67.048 71.7453 62.9582 75.8351 57.9132 75.8351H37.4177L37.5064 84.1263H58.3978C67.7543 84.1263 75.3391 76.5414 75.3391 67.185V54.5588Z" fill="url(#paint0_linear_121_19)"/>
<path opacity="0.15" d="M58.3977 84.127C59.7445 84.127 61.0521 83.9652 62.308 83.6682L61.0462 75.2729C60.0673 75.6305 59.0153 75.8359 57.9131 75.8359H48.9852L47.8416 84.127H58.3977Z" fill="black"/>
<path opacity="0.15" d="M59.7874 75.629C59.5599 75.6778 59.3294 75.7169 59.0952 75.748C58.7953 75.844 58.6402 75.8359 57.9132 75.8359H50.2803L49.0525 84.127H58.3986C59.1809 84.127 59.9485 84.0664 60.702 83.9623L59.7874 75.629Z" fill="black"/>
<path d="M37.4177 75.8359C29.8188 75.8359 23.3849 69.8327 23.2926 62.2345C23.1987 54.493 29.493 48.198 37.2352 48.2926C44.8334 48.3849 50.8366 54.8188 50.8366 62.4177V85.493L59.127 92V62.5064C59.127 50.6441 49.4381 40.2763 37.5788 40.0059C24.9858 39.7185 14.7192 49.9858 15.0059 62.5788C15.2762 74.4381 25.644 84.127 37.5064 84.127L37.4177 75.8359Z" fill="url(#paint1_linear_121_19)"/>
<path d="M70.8749 51.6192C73.9815 51.6192 76.4999 49.1009 76.4999 45.9943C76.4999 42.8877 73.9815 40.3694 70.8749 40.3694C67.7684 40.3694 65.25 42.8877 65.25 45.9943C65.25 49.1009 67.7684 51.6192 70.8749 51.6192Z" fill="url(#paint2_linear_121_19)"/>
<path d="M45.1702 70.2183H37.2041C32.8048 70.2183 29.238 66.6523 29.238 62.2523C29.238 57.8529 32.804 54.2862 37.2041 54.2862C41.6034 54.2862 45.1702 57.8522 45.1702 62.2523V70.2183Z" fill="url(#paint3_linear_121_19)"/>
<defs>
<linearGradient id="paint0_linear_121_19" x1="56.3787" y1="44.5035" x2="56.3787" y2="85.738" gradientUnits="userSpaceOnUse">
<stop stop-color="#9CF2FF"/>
<stop offset="1" stop-color="#14639C"/>
</linearGradient>
<linearGradient id="paint1_linear_121_19" x1="37.0639" y1="44.5035" x2="37.0639" y2="85.738" gradientUnits="userSpaceOnUse">
<stop stop-color="#9CF2FF"/>
<stop offset="1" stop-color="#14639C"/>
</linearGradient>
<linearGradient id="paint2_linear_121_19" x1="67.2113" y1="42.3309" x2="75.1422" y2="50.2618" gradientUnits="userSpaceOnUse">
<stop stop-color="white"/>
<stop offset="1" stop-color="#8FA4B5"/>
</linearGradient>
<linearGradient id="paint3_linear_121_19" x1="33.6125" y1="58.6608" x2="46.3504" y2="71.3987" gradientUnits="userSpaceOnUse">
<stop stop-color="white"/>
<stop offset="1" stop-color="#8FA4B5"/>
</linearGradient>
</defs>
</svg>
