<svg width="62" height="52" viewBox="0 0 62 52" fill="none" xmlns="http://www.w3.org/2000/svg">
<g opacity="0.15">
<path d="M22.4177 35.8359L22.5071 44.127L22.4177 35.8359Z" fill="black"/>
</g>
<path d="M60.3391 14.5588H52.048V26.7003C52.048 31.7453 47.9582 35.8351 42.9132 35.8351H22.4177L22.5064 44.1263H43.3978C52.7543 44.1263 60.3391 36.5414 60.3391 27.185V14.5588Z" fill="url(#paint0_linear_121_58)"/>
<path opacity="0.15" d="M43.3977 44.127C44.7445 44.127 46.0521 43.9652 47.308 43.6682L46.0462 35.2729C45.0673 35.6305 44.0153 35.8359 42.9131 35.8359H33.9852L32.8416 44.127H43.3977Z" fill="black"/>
<path opacity="0.15" d="M44.7874 35.629C44.5599 35.6778 44.3294 35.7169 44.0952 35.748C43.7953 35.844 43.6402 35.8359 42.9132 35.8359H35.2803L34.0525 44.127H43.3986C44.1809 44.127 44.9485 44.0664 45.702 43.9623L44.7874 35.629Z" fill="black"/>
<path d="M22.4177 35.8359C14.8188 35.8359 8.3849 29.8327 8.29256 22.2345C8.19874 14.493 14.493 8.19803 22.2352 8.29259C29.8334 8.38494 35.8366 14.8188 35.8366 22.4177V45.493L44.127 52V22.5064C44.127 10.6441 34.4381 0.276277 22.5788 0.00588939C9.98581 -0.281489 -0.28078 9.98584 0.00585992 22.5788C0.276247 34.4381 10.644 44.127 22.5064 44.127L22.4177 35.8359Z" fill="url(#paint1_linear_121_58)"/>
<path d="M55.8749 11.6192C58.9815 11.6192 61.4999 9.10087 61.4999 5.9943C61.4999 2.88773 58.9815 0.369362 55.8749 0.369362C52.7684 0.369362 50.25 2.88773 50.25 5.9943C50.25 9.10087 52.7684 11.6192 55.8749 11.6192Z" fill="url(#paint2_linear_121_58)"/>
<path d="M30.1702 30.2183H22.2041C17.8048 30.2183 14.238 26.6523 14.238 22.2522C14.238 17.8529 17.804 14.2862 22.2041 14.2862C26.6034 14.2862 30.1702 17.8522 30.1702 22.2522V30.2183Z" fill="url(#paint3_linear_121_58)"/>
<defs>
<linearGradient id="paint0_linear_121_58" x1="41.3787" y1="4.50355" x2="41.3787" y2="45.738" gradientUnits="userSpaceOnUse">
<stop stop-color="#9CF2FF"/>
<stop offset="1" stop-color="#14639C"/>
</linearGradient>
<linearGradient id="paint1_linear_121_58" x1="22.0639" y1="4.50355" x2="22.0639" y2="45.738" gradientUnits="userSpaceOnUse">
<stop stop-color="#9CF2FF"/>
<stop offset="1" stop-color="#14639C"/>
</linearGradient>
<linearGradient id="paint2_linear_121_58" x1="52.2113" y1="2.33092" x2="60.1422" y2="10.2618" gradientUnits="userSpaceOnUse">
<stop stop-color="white"/>
<stop offset="1" stop-color="#8FA4B5"/>
</linearGradient>
<linearGradient id="paint3_linear_121_58" x1="18.6125" y1="18.6608" x2="31.3504" y2="31.3987" gradientUnits="userSpaceOnUse">
<stop stop-color="white"/>
<stop offset="1" stop-color="#8FA4B5"/>
</linearGradient>
</defs>
</svg>
